<?xml version="1.0" encoding="utf-8"?>
<!-- Generator: Adobe Illustrator 15.0.0, SVG Export Plug-In . SVG Version: 6.00 Build 0)  -->
<!DOCTYPE svg PUBLIC "-//W3C//DTD SVG 1.1//EN" "http://www.w3.org/Graphics/SVG/1.1/DTD/svg11.dtd">
<svg version="1.1" id="Layer_1" xmlns="http://www.w3.org/2000/svg" xmlns:xlink="http://www.w3.org/1999/xlink" x="0px" y="0px"
	 width="150px" height="150px" viewBox="0 0 150 150" enable-background="new 0 0 150 150" xml:space="preserve">
<path id="Layer_4_4_" fill="#FFFFFF" d="M81.988,93.063l-22.645,25.16L44.246,102.12l-0.506-0.501l-25.16,29.185h88.569
	L81.988,93.063z M31.667,75.45c4.526,0,8.049,3.522,8.049,7.548c0,4.526-3.523,8.05-8.049,8.05c-4.531,0-8.055-3.522-8.055-8.05
	C24.118,78.975,27.637,75.45,31.667,75.45z"/>
<path fill="#FFFFFF" d="M6,48.781v97.12h115.739v-97.12H6z M113.69,139.359H14.054V55.823h100.137v83.537L113.69,139.359
	L113.69,139.359z M21.602,5v37.741h8.551V12.548h107.689v80.007h-10.565v7.549H146.9V5H21.602z"/>
</svg>
