<?xml version="1.0" encoding="utf-8"?>
<!-- Generator: Adobe Illustrator 15.0.0, SVG Export Plug-In . SVG Version: 6.00 Build 0)  -->
<!DOCTYPE svg PUBLIC "-//W3C//DTD SVG 1.1//EN" "http://www.w3.org/Graphics/SVG/1.1/DTD/svg11.dtd">
<svg version="1.1" id="Layer_1" xmlns="http://www.w3.org/2000/svg" xmlns:xlink="http://www.w3.org/1999/xlink" x="0px" y="0px"
	 width="150px" height="150px" viewBox="0 0 150 150" enable-background="new 0 0 150 150" xml:space="preserve">
<path fill="#FFFFFF" d="M77.167,147.666c-40.06,0-72.833-32.779-72.833-72.833C4.334,34.773,37.108,2,77.167,2
	C117.221,2,150,34.774,150,74.833C150,114.887,117.221,147.666,77.167,147.666z M77.167,11.884c-34.857,0-62.95,28.092-62.95,62.949
	c0,34.853,28.092,62.946,62.95,62.946c34.853,0,62.946-28.096,62.946-62.946C140.113,39.976,112.02,11.884,77.167,11.884z"/>
<polygon fill="#FFFFFF" points="58.438,43.619 58.438,105.529 108.381,74.833 "/>
</svg>
