<?xml version="1.0" encoding="utf-8"?>
<!-- Generator: Adobe Illustrator 16.0.0, SVG Export Plug-In . SVG Version: 6.00 Build 0)  -->
<!DOCTYPE svg PUBLIC "-//W3C//DTD SVG 1.1//EN" "http://www.w3.org/Graphics/SVG/1.1/DTD/svg11.dtd">
<svg version="1.1" id="Layer_1" xmlns="http://www.w3.org/2000/svg" xmlns:xlink="http://www.w3.org/1999/xlink" x="0px" y="0px"
	 width="150px" height="150px" viewBox="0 0 150 150" enable-background="new 0 0 150 150" xml:space="preserve">
<path fill="#FFFFFF" d="M137.391,0H12.571C5.608,0,0.251,6.43,0.251,14.465v121.07c0,8.035,5.357,14.465,12.32,14.465h124.82
	c6.969,0,12.326-6.43,12.326-14.465V14.465C150.25,6.43,144.359,0,137.391,0z M140.609,138.752H9.892V10.714h130.717V138.752z
	 M23.285,28.392h103.931v10.714H23.285V28.392z M77.393,55.714h49.823v10.714H77.393V55.714z M77.393,83.035h49.823V93.75H77.393
	V83.035z M77.393,110.895h49.823v10.715H77.393V110.895z M23.285,56.25H68.82v65.357H23.285V56.25z"/>
</svg>
